<mxfile host="app.diagrams.net" modified="2023-12-28T12:54:59.901Z" agent="Mozilla/5.0 (Windows NT 10.0; Win64; x64) AppleWebKit/537.36 (KHTML, like Gecko) Chrome/120.0.0.0 Safari/537.36 Edg/120.0.0.0" etag="S1vfinjEmgUzQRNO4Ct2" version="22.1.15" type="github">
  <diagram name="第 1 页" id="auNtT4oCTPd5AgYdLOog">
    <mxGraphModel dx="815" dy="-1909" grid="1" gridSize="10" guides="1" tooltips="1" connect="1" arrows="1" fold="1" page="1" pageScale="1" pageWidth="827" pageHeight="1169" math="0" shadow="0">
      <root>
        <mxCell id="0" />
        <mxCell id="1" parent="0" />
        <mxCell id="HSpRl-KauMdGZGbbXFsx-1" value="1:查詢" style="whiteSpace=wrap;html=1;aspect=fixed;" vertex="1" parent="1">
          <mxGeometry x="400" y="2530" width="80" height="80" as="geometry" />
        </mxCell>
        <mxCell id="HSpRl-KauMdGZGbbXFsx-2" value="1:更新" style="whiteSpace=wrap;html=1;aspect=fixed;" vertex="1" parent="1">
          <mxGeometry x="400" y="2730" width="80" height="80" as="geometry" />
        </mxCell>
        <mxCell id="HSpRl-KauMdGZGbbXFsx-3" value="&amp;nbsp; &amp;nbsp;庫存清單" style="strokeWidth=2;html=1;shape=mxgraph.flowchart.annotation_1;align=left;pointerEvents=1;" vertex="1" parent="1">
          <mxGeometry x="402.5" y="2655" width="75" height="30" as="geometry" />
        </mxCell>
        <mxCell id="HSpRl-KauMdGZGbbXFsx-4" value="" style="endArrow=classic;html=1;rounded=0;entryX=0.25;entryY=0;entryDx=0;entryDy=0;edgeStyle=orthogonalEdgeStyle;" edge="1" parent="1" target="HSpRl-KauMdGZGbbXFsx-1">
          <mxGeometry width="50" height="50" relative="1" as="geometry">
            <mxPoint x="340" y="2510" as="sourcePoint" />
            <mxPoint x="420" y="2510" as="targetPoint" />
          </mxGeometry>
        </mxCell>
        <mxCell id="HSpRl-KauMdGZGbbXFsx-5" value="" style="endArrow=classic;html=1;rounded=0;exitX=1;exitY=0.5;exitDx=0;exitDy=0;" edge="1" parent="1" source="HSpRl-KauMdGZGbbXFsx-1">
          <mxGeometry width="50" height="50" relative="1" as="geometry">
            <mxPoint x="560" y="2595" as="sourcePoint" />
            <mxPoint x="550" y="2570" as="targetPoint" />
          </mxGeometry>
        </mxCell>
        <mxCell id="HSpRl-KauMdGZGbbXFsx-6" value="" style="endArrow=classic;html=1;rounded=0;exitX=0;exitY=0.5;exitDx=0;exitDy=0;" edge="1" parent="1" source="HSpRl-KauMdGZGbbXFsx-1">
          <mxGeometry width="50" height="50" relative="1" as="geometry">
            <mxPoint x="490" y="2580" as="sourcePoint" />
            <mxPoint x="330" y="2570" as="targetPoint" />
          </mxGeometry>
        </mxCell>
        <mxCell id="HSpRl-KauMdGZGbbXFsx-7" value="" style="endArrow=classic;html=1;rounded=0;exitX=0.5;exitY=0;exitDx=0;exitDy=0;exitPerimeter=0;entryX=0.5;entryY=1;entryDx=0;entryDy=0;" edge="1" parent="1" source="HSpRl-KauMdGZGbbXFsx-3" target="HSpRl-KauMdGZGbbXFsx-1">
          <mxGeometry width="50" height="50" relative="1" as="geometry">
            <mxPoint x="410" y="2640" as="sourcePoint" />
            <mxPoint x="460" y="2590" as="targetPoint" />
          </mxGeometry>
        </mxCell>
        <mxCell id="HSpRl-KauMdGZGbbXFsx-8" value="" style="endArrow=classic;html=1;rounded=0;exitX=0.5;exitY=0;exitDx=0;exitDy=0;entryX=0.5;entryY=1;entryDx=0;entryDy=0;entryPerimeter=0;" edge="1" parent="1" source="HSpRl-KauMdGZGbbXFsx-2" target="HSpRl-KauMdGZGbbXFsx-3">
          <mxGeometry width="50" height="50" relative="1" as="geometry">
            <mxPoint x="439.71000000000004" y="2730" as="sourcePoint" />
            <mxPoint x="439.71000000000004" y="2685" as="targetPoint" />
          </mxGeometry>
        </mxCell>
        <mxCell id="HSpRl-KauMdGZGbbXFsx-9" value="" style="endArrow=classic;html=1;rounded=0;exitX=0;exitY=0.25;exitDx=0;exitDy=0;entryX=0;entryY=0.75;entryDx=0;entryDy=0;edgeStyle=orthogonalEdgeStyle;curved=1;" edge="1" parent="1" source="HSpRl-KauMdGZGbbXFsx-2" target="HSpRl-KauMdGZGbbXFsx-1">
          <mxGeometry width="50" height="50" relative="1" as="geometry">
            <mxPoint x="355" y="2730" as="sourcePoint" />
            <mxPoint x="355" y="2685" as="targetPoint" />
            <Array as="points">
              <mxPoint x="330" y="2750" />
              <mxPoint x="330" y="2590" />
            </Array>
          </mxGeometry>
        </mxCell>
        <mxCell id="HSpRl-KauMdGZGbbXFsx-10" value="" style="endArrow=classic;html=1;rounded=0;exitX=1;exitY=0.75;exitDx=0;exitDy=0;entryX=1;entryY=0.25;entryDx=0;entryDy=0;edgeStyle=orthogonalEdgeStyle;curved=1;" edge="1" parent="1" source="HSpRl-KauMdGZGbbXFsx-1" target="HSpRl-KauMdGZGbbXFsx-2">
          <mxGeometry width="50" height="50" relative="1" as="geometry">
            <mxPoint x="460" y="2750" as="sourcePoint" />
            <mxPoint x="460" y="2705" as="targetPoint" />
            <Array as="points">
              <mxPoint x="550" y="2590" />
              <mxPoint x="550" y="2750" />
            </Array>
          </mxGeometry>
        </mxCell>
        <mxCell id="HSpRl-KauMdGZGbbXFsx-11" value="" style="endArrow=classic;html=1;rounded=0;entryX=0;entryY=0.5;entryDx=0;entryDy=0;" edge="1" parent="1" target="HSpRl-KauMdGZGbbXFsx-2">
          <mxGeometry width="50" height="50" relative="1" as="geometry">
            <mxPoint x="330" y="2770" as="sourcePoint" />
            <mxPoint x="295" y="2830" as="targetPoint" />
          </mxGeometry>
        </mxCell>
        <mxCell id="HSpRl-KauMdGZGbbXFsx-12" value="" style="endArrow=classic;html=1;rounded=0;entryX=1;entryY=0.5;entryDx=0;entryDy=0;" edge="1" parent="1" target="HSpRl-KauMdGZGbbXFsx-2">
          <mxGeometry width="50" height="50" relative="1" as="geometry">
            <mxPoint x="550" y="2770" as="sourcePoint" />
            <mxPoint x="410" y="2780" as="targetPoint" />
          </mxGeometry>
        </mxCell>
        <mxCell id="HSpRl-KauMdGZGbbXFsx-13" value="&lt;font style=&quot;font-size: 9px;&quot;&gt;庫存訊息查詢&lt;/font&gt;" style="text;html=1;strokeColor=none;fillColor=default;align=center;verticalAlign=middle;whiteSpace=wrap;rounded=0;fontSize=9;" vertex="1" parent="1">
          <mxGeometry x="335" y="2500" width="65" height="10" as="geometry" />
        </mxCell>
        <mxCell id="HSpRl-KauMdGZGbbXFsx-14" value="&lt;font style=&quot;font-size: 9px;&quot;&gt;庫存訊息清單&lt;/font&gt;" style="text;html=1;strokeColor=none;fillColor=default;align=center;verticalAlign=middle;whiteSpace=wrap;rounded=0;fontSize=9;" vertex="1" parent="1">
          <mxGeometry x="330" y="2550" width="65" height="10" as="geometry" />
        </mxCell>
        <mxCell id="HSpRl-KauMdGZGbbXFsx-15" value="&lt;font style=&quot;font-size: 9px;&quot;&gt;進貨訊息請求&lt;/font&gt;" style="text;html=1;strokeColor=none;fillColor=default;align=center;verticalAlign=middle;whiteSpace=wrap;rounded=0;fontSize=9;" vertex="1" parent="1">
          <mxGeometry x="480" y="2550" width="65" height="10" as="geometry" />
        </mxCell>
        <mxCell id="HSpRl-KauMdGZGbbXFsx-16" value="&lt;font style=&quot;font-size: 9px;&quot;&gt;發出庫存檢查請求&lt;/font&gt;" style="text;html=1;strokeColor=none;fillColor=default;align=center;verticalAlign=middle;whiteSpace=wrap;rounded=0;fontSize=9;" vertex="1" parent="1">
          <mxGeometry x="290" y="2665" width="75" height="10" as="geometry" />
        </mxCell>
        <mxCell id="HSpRl-KauMdGZGbbXFsx-17" value="&lt;font style=&quot;font-size: 9px;&quot;&gt;庫存訊息檢查結果&lt;/font&gt;" style="text;html=1;strokeColor=none;fillColor=default;align=center;verticalAlign=middle;whiteSpace=wrap;rounded=0;fontSize=9;" vertex="1" parent="1">
          <mxGeometry x="520" y="2660" width="75" height="10" as="geometry" />
        </mxCell>
        <mxCell id="HSpRl-KauMdGZGbbXFsx-18" value="&lt;font style=&quot;font-size: 9px;&quot;&gt;已進貨訊息&lt;/font&gt;" style="text;html=1;strokeColor=none;fillColor=default;align=center;verticalAlign=middle;whiteSpace=wrap;rounded=0;fontSize=9;" vertex="1" parent="1">
          <mxGeometry x="330" y="2770" width="55" height="10" as="geometry" />
        </mxCell>
        <mxCell id="HSpRl-KauMdGZGbbXFsx-19" value="&lt;font style=&quot;font-size: 9px;&quot;&gt;銷售訊息&lt;/font&gt;" style="text;html=1;strokeColor=none;fillColor=default;align=center;verticalAlign=middle;whiteSpace=wrap;rounded=0;fontSize=9;" vertex="1" parent="1">
          <mxGeometry x="500" y="2770" width="55" height="10" as="geometry" />
        </mxCell>
      </root>
    </mxGraphModel>
  </diagram>
</mxfile>
